<?xml version="1.0" standalone="no"?>
<!DOCTYPE svg PUBLIC "-//W3C//DTD SVG 20010904//EN"
 "http://www.w3.org/TR/2001/REC-SVG-20010904/DTD/svg10.dtd">
<svg version="1.0" xmlns="http://www.w3.org/2000/svg"
 width="512.000000pt" height="512.000000pt" viewBox="0 0 512.000000 512.000000"
 preserveAspectRatio="xMidYMid meet">

<g transform="translate(0.000000,512.000000) scale(0.100000,-0.100000)"
fill="yellow" stroke="none">
<path d="M2330 5103 c-19 -1 -87 -8 -150 -14 -239 -22 -549 -87 -587 -122 -33
-30 -31 -79 5 -107 31 -25 39 -25 211 15 663 153 1449 87 2026 -172 467 -208
834 -578 1028 -1032 60 -141 69 -207 39 -267 -24 -48 -81 -101 -120 -111 -15
-5 -1020 -8 -2233 -8 l-2206 0 -48 30 c-102 63 -119 156 -59 309 187 468 532
834 994 1054 134 64 160 84 160 124 0 35 -40 78 -73 78 -13 0 -86 -31 -163
-69 -448 -222 -781 -550 -989 -975 -35 -72 -75 -165 -90 -206 -50 -141 -30
-276 57 -375 l41 -46 -51 -52 c-95 -98 -128 -194 -120 -358 4 -80 10 -107 35
-161 51 -108 133 -184 236 -219 l52 -18 0 -221 0 -222 -48 -18 c-119 -45 -215
-141 -254 -253 -28 -80 -25 -273 5 -347 44 -110 123 -188 237 -235 l60 -24 6
-113 c4 -62 14 -142 24 -178 95 -359 387 -620 820 -733 183 -48 198 -48 1440
-45 1145 4 1172 4 1260 25 475 110 791 377 890 753 10 36 20 116 24 178 l6
113 60 24 c168 68 254 194 263 386 7 157 -31 264 -127 357 -45 45 -149 102
-184 102 -16 0 -17 15 -15 226 l3 225 52 18 c103 35 185 111 236 219 25 54 31
81 35 161 8 161 -26 262 -120 358 l-51 52 41 46 c89 102 107 236 50 392 -118
327 -368 673 -644 894 -407 324 -912 505 -1557 558 -117 10 -423 13 -507 4z
m2310 -2798 l0 -85 -769 0 -770 0 -20 -26 c-12 -15 -21 -33 -21 -40 0 -26 23
-62 47 -73 17 -8 247 -11 778 -11 l755 0 0 -172 c0 -186 -5 -206 -53 -242 -45
-33 -93 -27 -168 21 -91 60 -140 75 -239 76 -121 1 -179 -20 -312 -114 -120
-86 -180 -107 -267 -94 -67 10 -99 26 -200 99 -121 86 -181 108 -296 109 -136
1 -182 -18 -378 -158 -79 -56 -192 -68 -287 -29 -19 8 -67 40 -108 70 -158
119 -295 148 -457 97 -57 -18 -106 -47 -185 -109 -30 -24 -72 -50 -92 -59
l-38 -15 0 220 c0 234 6 266 49 290 13 6 225 10 611 10 l591 0 24 25 c31 30
32 73 5 103 l-21 22 -601 0 c-427 0 -612 -3 -639 -12 -51 -15 -114 -69 -142
-122 -22 -40 -22 -48 -27 -561 -6 -589 -2 -565 -88 -606 -49 -24 -99 -20 -144
13 -59 41 -58 34 -58 551 0 279 -4 496 -10 528 -14 74 -56 137 -114 174 l-49
30 -234 3 -233 3 0 85 0 84 2080 0 2080 0 0 -85z m-3709 -264 c29 -29 29 -30
29 -154 l0 -125 -52 -7 c-81 -10 -142 -33 -210 -78 -67 -45 -114 -53 -160 -28
-52 27 -58 54 -58 245 l0 176 211 0 211 0 29 -29z m33 -1022 c14 -104 78 -194
172 -240 72 -36 189 -34 260 3 95 50 164 155 164 250 l0 38 1540 0 1540 0 0
-59 c0 -245 -133 -491 -343 -633 -130 -88 -332 -169 -497 -199 -110 -20 -2369
-20 -2480 0 -281 50 -535 187 -675 364 -101 127 -165 302 -165 455 l0 72 239
0 238 0 7 -51z"/>
<path d="M2524 4538 c-33 -16 -44 -51 -44 -142 0 -69 4 -88 21 -110 25 -32 75
-35 110 -7 22 18 24 26 24 121 0 99 -1 102 -28 126 -30 26 -50 29 -83 12z"/>
<path d="M1893 4525 c-26 -18 -103 -156 -103 -184 0 -33 43 -74 78 -74 41 0
54 12 102 98 46 86 50 116 15 150 -27 28 -61 32 -92 10z"/>
<path d="M3136 4519 c-38 -30 -34 -73 11 -151 53 -90 61 -98 104 -98 29 0 42
6 58 26 30 38 27 58 -25 146 -59 100 -95 119 -148 77z"/>
</g>
</svg>
